<mxfile host="app.diagrams.net" agent="Mozilla/5.0 (Windows NT 10.0; Win64; x64) AppleWebKit/537.36 (KHTML, like Gecko) Chrome/141.0.0.0 Safari/537.36" version="28.2.5">
  <diagram name="Página-1" id="KS4fUt8gvEwMPvRJXrXc">
    <mxGraphModel grid="1" page="1" gridSize="10" guides="1" tooltips="1" connect="1" arrows="1" fold="1" pageScale="1" pageWidth="827" pageHeight="1169" math="0" shadow="0">
      <root>
        <mxCell id="0" />
        <mxCell id="1" parent="0" />
        <mxCell id="dXR9RFDaitIcVRBOJF53-1" value="Processo de Cadastro de Novo Curso" style="swimlane;childLayout=stackLayout;resizeParent=1;resizeParentMax=0;horizontal=0;startSize=20;horizontalStack=0;html=1;fillColor=#dae8fc;strokeColor=#6c8ebf;" vertex="1" parent="1">
          <mxGeometry x="20" y="150" width="2800" height="520" as="geometry" />
        </mxCell>
        <mxCell id="dXR9RFDaitIcVRBOJF53-2" value="Administrador" style="swimlane;startSize=20;horizontal=0;html=1;fillColor=#d5e8d4;strokeColor=#82b366;aspect=fixed;" vertex="1" parent="dXR9RFDaitIcVRBOJF53-1">
          <mxGeometry x="20" width="2780" height="260" as="geometry" />
        </mxCell>
        <mxCell id="0Af9n1qGzPiXgY_UXaJy-2" value="Início" style="points=[[0.145,0.145,0],[0.5,0,0],[0.855,0.145,0],[1,0.5,0],[0.855,0.855,0],[0.5,1,0],[0.145,0.855,0],[0,0.5,0]];shape=mxgraph.bpmn.event;html=1;verticalLabelPosition=bottom;labelBackgroundColor=#ffffff;verticalAlign=top;align=center;perimeter=ellipsePerimeter;outlineConnect=0;aspect=fixed;outline=standard;symbol=general;fillColor=#d5e8d4;strokeColor=default;" vertex="1" parent="dXR9RFDaitIcVRBOJF53-2">
          <mxGeometry x="50" y="70" width="40" height="40" as="geometry" />
        </mxCell>
        <mxCell id="0Af9n1qGzPiXgY_UXaJy-3" value="Acessar área&lt;br&gt;Gestão de cursos;" style="points=[[0.25,0,0],[0.5,0,0],[0.75,0,0],[1,0.25,0],[1,0.5,0],[1,0.75,0],[0.75,1,0],[0.5,1,0],[0.25,1,0],[0,0.75,0],[0,0.5,0],[0,0.25,0]];shape=mxgraph.bpmn.task2;whiteSpace=wrap;rectStyle=rounded;size=10;html=1;container=1;expand=0;collapsible=0;taskMarker=abstract;fillColor=#d5e8d4;strokeColor=#82b366;" vertex="1" parent="dXR9RFDaitIcVRBOJF53-2">
          <mxGeometry x="150" y="50" width="160" height="80" as="geometry" />
        </mxCell>
        <mxCell id="0Af9n1qGzPiXgY_UXaJy-4" style="edgeStyle=orthogonalEdgeStyle;rounded=0;orthogonalLoop=1;jettySize=auto;html=1;entryX=0;entryY=0.5;entryDx=0;entryDy=0;entryPerimeter=0;" edge="1" parent="dXR9RFDaitIcVRBOJF53-2" source="0Af9n1qGzPiXgY_UXaJy-2" target="0Af9n1qGzPiXgY_UXaJy-3">
          <mxGeometry relative="1" as="geometry" />
        </mxCell>
        <mxCell id="0Af9n1qGzPiXgY_UXaJy-6" value="Acionar botão&lt;br&gt;&amp;nbsp;&amp;lt;Novo Curso&amp;gt;;" style="points=[[0.25,0,0],[0.5,0,0],[0.75,0,0],[1,0.25,0],[1,0.5,0],[1,0.75,0],[0.75,1,0],[0.5,1,0],[0.25,1,0],[0,0.75,0],[0,0.5,0],[0,0.25,0]];shape=mxgraph.bpmn.task2;whiteSpace=wrap;rectStyle=rounded;size=10;html=1;container=1;expand=0;collapsible=0;taskMarker=abstract;fillColor=#d5e8d4;strokeColor=#82b366;" vertex="1" parent="dXR9RFDaitIcVRBOJF53-2">
          <mxGeometry x="550" y="50" width="160" height="80" as="geometry" />
        </mxCell>
        <mxCell id="0Af9n1qGzPiXgY_UXaJy-8" value="Preencher Campos obrigatórios e acionar botão &amp;lt;Cadastrar Curso&amp;gt;;" style="points=[[0.25,0,0],[0.5,0,0],[0.75,0,0],[1,0.25,0],[1,0.5,0],[1,0.75,0],[0.75,1,0],[0.5,1,0],[0.25,1,0],[0,0.75,0],[0,0.5,0],[0,0.25,0]];shape=mxgraph.bpmn.task2;whiteSpace=wrap;rectStyle=rounded;size=10;html=1;container=1;expand=0;collapsible=0;taskMarker=abstract;fillColor=#d5e8d4;strokeColor=#82b366;" vertex="1" parent="dXR9RFDaitIcVRBOJF53-2">
          <mxGeometry x="1180" y="160" width="160" height="80" as="geometry" />
        </mxCell>
        <mxCell id="0Af9n1qGzPiXgY_UXaJy-24" value="Acionar botão &amp;lt;OK&amp;gt;;" style="points=[[0.25,0,0],[0.5,0,0],[0.75,0,0],[1,0.25,0],[1,0.5,0],[1,0.75,0],[0.75,1,0],[0.5,1,0],[0.25,1,0],[0,0.75,0],[0,0.5,0],[0,0.25,0]];shape=mxgraph.bpmn.task2;whiteSpace=wrap;rectStyle=rounded;size=10;html=1;container=1;expand=0;collapsible=0;taskMarker=abstract;fillColor=#d5e8d4;strokeColor=#82b366;" vertex="1" parent="dXR9RFDaitIcVRBOJF53-2">
          <mxGeometry x="2220" y="65" width="160" height="80" as="geometry" />
        </mxCell>
        <mxCell id="0Af9n1qGzPiXgY_UXaJy-34" value="Preencher&lt;br&gt;Formulário?" style="points=[[0.25,0.25,0],[0.5,0,0],[0.75,0.25,0],[1,0.5,0],[0.75,0.75,0],[0.5,1,0],[0.25,0.75,0],[0,0.5,0]];shape=mxgraph.bpmn.gateway2;html=1;verticalLabelPosition=middle;labelBackgroundColor=none;verticalAlign=middle;align=center;perimeter=rhombusPerimeter;outlineConnect=0;outline=none;symbol=none;fillColor=#fff2cc;strokeColor=default;labelPosition=center;" vertex="1" parent="dXR9RFDaitIcVRBOJF53-2">
          <mxGeometry x="1000" y="85" width="90" height="90" as="geometry" />
        </mxCell>
        <mxCell id="0Af9n1qGzPiXgY_UXaJy-36" value="Sim" style="edgeStyle=orthogonalEdgeStyle;rounded=0;orthogonalLoop=1;jettySize=auto;html=1;entryX=0;entryY=0.5;entryDx=0;entryDy=0;entryPerimeter=0;" edge="1" parent="dXR9RFDaitIcVRBOJF53-2" source="0Af9n1qGzPiXgY_UXaJy-34" target="0Af9n1qGzPiXgY_UXaJy-8">
          <mxGeometry relative="1" as="geometry">
            <Array as="points">
              <mxPoint x="1045" y="200" />
            </Array>
          </mxGeometry>
        </mxCell>
        <mxCell id="0Af9n1qGzPiXgY_UXaJy-37" value="Acionar botão &lt;br&gt;&amp;lt;Cancelar cadastro&amp;gt;;" style="points=[[0.25,0,0],[0.5,0,0],[0.75,0,0],[1,0.25,0],[1,0.5,0],[1,0.75,0],[0.75,1,0],[0.5,1,0],[0.25,1,0],[0,0.75,0],[0,0.5,0],[0,0.25,0]];shape=mxgraph.bpmn.task2;whiteSpace=wrap;rectStyle=rounded;size=10;html=1;container=1;expand=0;collapsible=0;taskMarker=abstract;fillColor=#d5e8d4;strokeColor=#82b366;" vertex="1" parent="dXR9RFDaitIcVRBOJF53-2">
          <mxGeometry x="1180" y="50" width="160" height="80" as="geometry" />
        </mxCell>
        <mxCell id="0Af9n1qGzPiXgY_UXaJy-38" value="Não" style="edgeStyle=orthogonalEdgeStyle;rounded=0;orthogonalLoop=1;jettySize=auto;html=1;entryX=0;entryY=0.5;entryDx=0;entryDy=0;entryPerimeter=0;" edge="1" parent="dXR9RFDaitIcVRBOJF53-2" source="0Af9n1qGzPiXgY_UXaJy-34" target="0Af9n1qGzPiXgY_UXaJy-37">
          <mxGeometry relative="1" as="geometry" />
        </mxCell>
        <mxCell id="dXR9RFDaitIcVRBOJF53-3" value="Sistema UniCurso" style="swimlane;startSize=20;horizontal=0;html=1;fillColor=#f5f5f5;strokeColor=#666666;fontColor=#333333;aspect=fixed;" vertex="1" parent="dXR9RFDaitIcVRBOJF53-1">
          <mxGeometry x="20" y="260" width="2780" height="260" as="geometry" />
        </mxCell>
        <mxCell id="0Af9n1qGzPiXgY_UXaJy-5" value="Carregar tela Gestão de Cursos e &lt;br&gt;exibir informações da tela;" style="points=[[0.25,0,0],[0.5,0,0],[0.75,0,0],[1,0.25,0],[1,0.5,0],[1,0.75,0],[0.75,1,0],[0.5,1,0],[0.25,1,0],[0,0.75,0],[0,0.5,0],[0,0.25,0]];shape=mxgraph.bpmn.task2;whiteSpace=wrap;rectStyle=rounded;size=10;html=1;container=1;expand=0;collapsible=0;taskMarker=abstract;fillColor=#f5f5f5;fontColor=#333333;strokeColor=#666666;" vertex="1" parent="dXR9RFDaitIcVRBOJF53-3">
          <mxGeometry x="350" y="110" width="160" height="80" as="geometry" />
        </mxCell>
        <mxCell id="0Af9n1qGzPiXgY_UXaJy-7" value="Exibir formulário &lt;br&gt;&quot;Novo Curso&quot;;" style="points=[[0.25,0,0],[0.5,0,0],[0.75,0,0],[1,0.25,0],[1,0.5,0],[1,0.75,0],[0.75,1,0],[0.5,1,0],[0.25,1,0],[0,0.75,0],[0,0.5,0],[0,0.25,0]];shape=mxgraph.bpmn.task2;whiteSpace=wrap;rectStyle=rounded;size=10;html=1;container=1;expand=0;collapsible=0;taskMarker=abstract;fillColor=#f5f5f5;fontColor=#333333;strokeColor=#666666;" vertex="1" parent="dXR9RFDaitIcVRBOJF53-3">
          <mxGeometry x="787" y="115" width="160" height="80" as="geometry" />
        </mxCell>
        <mxCell id="0Af9n1qGzPiXgY_UXaJy-11" style="edgeStyle=orthogonalEdgeStyle;rounded=0;orthogonalLoop=1;jettySize=auto;html=1;" edge="1" parent="dXR9RFDaitIcVRBOJF53-3" source="0Af9n1qGzPiXgY_UXaJy-9" target="0Af9n1qGzPiXgY_UXaJy-10">
          <mxGeometry relative="1" as="geometry" />
        </mxCell>
        <mxCell id="0Af9n1qGzPiXgY_UXaJy-9" value="Realizar validação &lt;br&gt;dos dados do formulário;" style="points=[[0.25,0,0],[0.5,0,0],[0.75,0,0],[1,0.25,0],[1,0.5,0],[1,0.75,0],[0.75,1,0],[0.5,1,0],[0.25,1,0],[0,0.75,0],[0,0.5,0],[0,0.25,0]];shape=mxgraph.bpmn.task2;whiteSpace=wrap;rectStyle=rounded;size=10;html=1;container=1;expand=0;collapsible=0;taskMarker=abstract;fillColor=#f5f5f5;fontColor=#333333;strokeColor=#666666;" vertex="1" parent="dXR9RFDaitIcVRBOJF53-3">
          <mxGeometry x="1391" y="120" width="160" height="80" as="geometry" />
        </mxCell>
        <mxCell id="0Af9n1qGzPiXgY_UXaJy-10" value="Dados &lt;br&gt;válidos?" style="points=[[0.25,0.25,0],[0.5,0,0],[0.75,0.25,0],[1,0.5,0],[0.75,0.75,0],[0.5,1,0],[0.25,0.75,0],[0,0.5,0]];shape=mxgraph.bpmn.gateway2;html=1;verticalLabelPosition=middle;labelBackgroundColor=none;verticalAlign=middle;align=center;perimeter=rhombusPerimeter;outlineConnect=0;outline=none;symbol=none;fillColor=#fff2cc;strokeColor=default;labelPosition=center;" vertex="1" parent="dXR9RFDaitIcVRBOJF53-3">
          <mxGeometry x="1600" y="123.75" width="80" height="72.5" as="geometry" />
        </mxCell>
        <mxCell id="0Af9n1qGzPiXgY_UXaJy-23" style="edgeStyle=orthogonalEdgeStyle;rounded=0;orthogonalLoop=1;jettySize=auto;html=1;" edge="1" parent="dXR9RFDaitIcVRBOJF53-3" source="0Af9n1qGzPiXgY_UXaJy-12" target="0Af9n1qGzPiXgY_UXaJy-22">
          <mxGeometry relative="1" as="geometry" />
        </mxCell>
        <mxCell id="0Af9n1qGzPiXgY_UXaJy-12" value="Salvar dados do Curso&amp;nbsp;&lt;br&gt;(novo curso);" style="points=[[0.25,0,0],[0.5,0,0],[0.75,0,0],[1,0.25,0],[1,0.5,0],[1,0.75,0],[0.75,1,0],[0.5,1,0],[0.25,1,0],[0,0.75,0],[0,0.5,0],[0,0.25,0]];shape=mxgraph.bpmn.task2;whiteSpace=wrap;rectStyle=rounded;size=10;html=1;container=1;expand=0;collapsible=0;taskMarker=abstract;fillColor=#f5f5f5;fontColor=#333333;strokeColor=#666666;" vertex="1" parent="dXR9RFDaitIcVRBOJF53-3">
          <mxGeometry x="1740" y="120" width="160" height="80" as="geometry" />
        </mxCell>
        <mxCell id="0Af9n1qGzPiXgY_UXaJy-13" value="Sim" style="edgeStyle=orthogonalEdgeStyle;rounded=0;orthogonalLoop=1;jettySize=auto;html=1;entryX=0;entryY=0.5;entryDx=0;entryDy=0;entryPerimeter=0;" edge="1" parent="dXR9RFDaitIcVRBOJF53-3" source="0Af9n1qGzPiXgY_UXaJy-10" target="0Af9n1qGzPiXgY_UXaJy-12">
          <mxGeometry relative="1" as="geometry" />
        </mxCell>
        <mxCell id="0Af9n1qGzPiXgY_UXaJy-21" value="Banco de dados" style="shape=datastore;whiteSpace=wrap;html=1;fillColor=#f5f5f5;fontColor=#333333;strokeColor=#666666;" vertex="1" parent="dXR9RFDaitIcVRBOJF53-3">
          <mxGeometry x="1930" y="190" width="60" height="60" as="geometry" />
        </mxCell>
        <mxCell id="0Af9n1qGzPiXgY_UXaJy-22" value="Exibe mensagem de Sucesso;" style="points=[[0.25,0,0],[0.5,0,0],[0.75,0,0],[1,0.25,0],[1,0.5,0],[1,0.75,0],[0.75,1,0],[0.5,1,0],[0.25,1,0],[0,0.75,0],[0,0.5,0],[0,0.25,0]];shape=mxgraph.bpmn.task2;whiteSpace=wrap;rectStyle=rounded;size=10;html=1;container=1;expand=0;collapsible=0;taskMarker=abstract;fillColor=#f5f5f5;fontColor=#333333;strokeColor=#666666;" vertex="1" parent="dXR9RFDaitIcVRBOJF53-3">
          <mxGeometry x="2020" y="120" width="160" height="80" as="geometry" />
        </mxCell>
        <mxCell id="0Af9n1qGzPiXgY_UXaJy-29" style="edgeStyle=orthogonalEdgeStyle;rounded=0;orthogonalLoop=1;jettySize=auto;html=1;" edge="1" parent="dXR9RFDaitIcVRBOJF53-3" source="0Af9n1qGzPiXgY_UXaJy-26" target="0Af9n1qGzPiXgY_UXaJy-28">
          <mxGeometry relative="1" as="geometry" />
        </mxCell>
        <mxCell id="0Af9n1qGzPiXgY_UXaJy-26" value="Redirecionar para tela&lt;br&gt;Gestão de Cursos;" style="points=[[0.25,0,0],[0.5,0,0],[0.75,0,0],[1,0.25,0],[1,0.5,0],[1,0.75,0],[0.75,1,0],[0.5,1,0],[0.25,1,0],[0,0.75,0],[0,0.5,0],[0,0.25,0]];shape=mxgraph.bpmn.task2;whiteSpace=wrap;rectStyle=rounded;size=10;html=1;container=1;expand=0;collapsible=0;taskMarker=abstract;fillColor=#f5f5f5;fontColor=#333333;strokeColor=#666666;" vertex="1" parent="dXR9RFDaitIcVRBOJF53-3">
          <mxGeometry x="2420" y="120" width="160" height="80" as="geometry" />
        </mxCell>
        <mxCell id="0Af9n1qGzPiXgY_UXaJy-28" value="Fim" style="points=[[0.145,0.145,0],[0.5,0,0],[0.855,0.145,0],[1,0.5,0],[0.855,0.855,0],[0.5,1,0],[0.145,0.855,0],[0,0.5,0]];shape=mxgraph.bpmn.event;html=1;verticalLabelPosition=bottom;labelBackgroundColor=#ffffff;verticalAlign=top;align=center;perimeter=ellipsePerimeter;outlineConnect=0;aspect=fixed;outline=end;symbol=terminate2;fillColor=#f5f5f5;fontColor=#333333;strokeColor=default;" vertex="1" parent="dXR9RFDaitIcVRBOJF53-3">
          <mxGeometry x="2660" y="135" width="50" height="50" as="geometry" />
        </mxCell>
        <mxCell id="0Af9n1qGzPiXgY_UXaJy-30" value="" style="endArrow=none;dashed=1;html=1;dashPattern=1 3;strokeWidth=2;rounded=0;entryX=0;entryY=0.5;entryDx=0;entryDy=0;exitX=0.5;exitY=1;exitDx=0;exitDy=0;exitPerimeter=0;" edge="1" parent="dXR9RFDaitIcVRBOJF53-3" source="0Af9n1qGzPiXgY_UXaJy-12" target="0Af9n1qGzPiXgY_UXaJy-21">
          <mxGeometry width="50" height="50" relative="1" as="geometry">
            <mxPoint x="1830" y="260" as="sourcePoint" />
            <mxPoint x="1930" y="220" as="targetPoint" />
            <Array as="points">
              <mxPoint x="1820" y="220" />
            </Array>
          </mxGeometry>
        </mxCell>
        <mxCell id="0Af9n1qGzPiXgY_UXaJy-31" value="Exibir mensagem de Erro" style="points=[[0.25,0,0],[0.5,0,0],[0.75,0,0],[1,0.25,0],[1,0.5,0],[1,0.75,0],[0.75,1,0],[0.5,1,0],[0.25,1,0],[0,0.75,0],[0,0.5,0],[0,0.25,0]];shape=mxgraph.bpmn.task2;whiteSpace=wrap;rectStyle=rounded;size=10;html=1;container=1;expand=0;collapsible=0;taskMarker=abstract;fillColor=#f5f5f5;fontColor=#333333;strokeColor=#666666;" vertex="1" parent="dXR9RFDaitIcVRBOJF53-3">
          <mxGeometry x="1740" y="10" width="160" height="80" as="geometry" />
        </mxCell>
        <mxCell id="0Af9n1qGzPiXgY_UXaJy-32" value="Não" style="edgeStyle=orthogonalEdgeStyle;rounded=0;orthogonalLoop=1;jettySize=auto;html=1;entryX=0;entryY=0.5;entryDx=0;entryDy=0;entryPerimeter=0;" edge="1" parent="dXR9RFDaitIcVRBOJF53-3" source="0Af9n1qGzPiXgY_UXaJy-10" target="0Af9n1qGzPiXgY_UXaJy-31">
          <mxGeometry x="0.4245" relative="1" as="geometry">
            <Array as="points">
              <mxPoint x="1640" y="50" />
            </Array>
            <mxPoint as="offset" />
          </mxGeometry>
        </mxCell>
        <mxCell id="0Af9n1qGzPiXgY_UXaJy-39" value="Cancelar cadastro" style="points=[[0.145,0.145,0],[0.5,0,0],[0.855,0.145,0],[1,0.5,0],[0.855,0.855,0],[0.5,1,0],[0.145,0.855,0],[0,0.5,0]];shape=mxgraph.bpmn.event;html=1;verticalLabelPosition=bottom;labelBackgroundColor=#ffffff;verticalAlign=top;align=center;perimeter=ellipsePerimeter;outlineConnect=0;aspect=fixed;outline=end;symbol=cancel;noLabel=0;fillColor=#f5f5f5;fontColor=#333333;strokeColor=#666666;" vertex="1" parent="dXR9RFDaitIcVRBOJF53-3">
          <mxGeometry x="1446" y="25" width="50" height="50" as="geometry" />
        </mxCell>
        <mxCell id="0Af9n1qGzPiXgY_UXaJy-41" value="Banco de dados" style="shape=datastore;whiteSpace=wrap;html=1;fillColor=#f5f5f5;fontColor=#333333;strokeColor=#666666;" vertex="1" parent="dXR9RFDaitIcVRBOJF53-3">
          <mxGeometry x="560" y="175" width="60" height="60" as="geometry" />
        </mxCell>
        <mxCell id="0Af9n1qGzPiXgY_UXaJy-42" value="" style="endArrow=none;dashed=1;html=1;dashPattern=1 3;strokeWidth=2;rounded=0;entryX=0;entryY=0.7;entryDx=0;entryDy=0;exitX=0.5;exitY=1;exitDx=0;exitDy=0;exitPerimeter=0;" edge="1" parent="dXR9RFDaitIcVRBOJF53-3" source="0Af9n1qGzPiXgY_UXaJy-5" target="0Af9n1qGzPiXgY_UXaJy-41">
          <mxGeometry width="50" height="50" relative="1" as="geometry">
            <mxPoint x="430" y="200" as="sourcePoint" />
            <mxPoint x="540" y="220" as="targetPoint" />
            <Array as="points">
              <mxPoint x="430" y="220" />
            </Array>
          </mxGeometry>
        </mxCell>
        <mxCell id="0Af9n1qGzPiXgY_UXaJy-45" value="RF02" style="text;html=1;align=center;verticalAlign=middle;resizable=0;points=[];autosize=1;strokeColor=#d79b00;fillColor=#ffe6cc;" vertex="1" parent="dXR9RFDaitIcVRBOJF53-3">
          <mxGeometry x="1501" y="200" width="50" height="30" as="geometry" />
        </mxCell>
        <mxCell id="0Af9n1qGzPiXgY_UXaJy-46" value="RF03" style="text;html=1;align=center;verticalAlign=middle;resizable=0;points=[];autosize=1;strokeColor=#d79b00;fillColor=#ffe6cc;" vertex="1" parent="dXR9RFDaitIcVRBOJF53-3">
          <mxGeometry x="2520" y="200" width="50" height="30" as="geometry" />
        </mxCell>
        <mxCell id="0Af9n1qGzPiXgY_UXaJy-14" style="edgeStyle=orthogonalEdgeStyle;rounded=0;orthogonalLoop=1;jettySize=auto;html=1;entryX=0;entryY=0.5;entryDx=0;entryDy=0;entryPerimeter=0;" edge="1" parent="dXR9RFDaitIcVRBOJF53-1" source="0Af9n1qGzPiXgY_UXaJy-8" target="0Af9n1qGzPiXgY_UXaJy-9">
          <mxGeometry relative="1" as="geometry" />
        </mxCell>
        <mxCell id="0Af9n1qGzPiXgY_UXaJy-17" style="edgeStyle=orthogonalEdgeStyle;rounded=0;orthogonalLoop=1;jettySize=auto;html=1;entryX=0;entryY=0.5;entryDx=0;entryDy=0;entryPerimeter=0;" edge="1" parent="dXR9RFDaitIcVRBOJF53-1" source="0Af9n1qGzPiXgY_UXaJy-6" target="0Af9n1qGzPiXgY_UXaJy-7">
          <mxGeometry relative="1" as="geometry" />
        </mxCell>
        <mxCell id="0Af9n1qGzPiXgY_UXaJy-19" style="edgeStyle=orthogonalEdgeStyle;rounded=0;orthogonalLoop=1;jettySize=auto;html=1;entryX=0;entryY=0.5;entryDx=0;entryDy=0;entryPerimeter=0;" edge="1" parent="dXR9RFDaitIcVRBOJF53-1" source="0Af9n1qGzPiXgY_UXaJy-5" target="0Af9n1qGzPiXgY_UXaJy-6">
          <mxGeometry relative="1" as="geometry" />
        </mxCell>
        <mxCell id="0Af9n1qGzPiXgY_UXaJy-20" style="edgeStyle=orthogonalEdgeStyle;rounded=0;orthogonalLoop=1;jettySize=auto;html=1;entryX=0;entryY=0.5;entryDx=0;entryDy=0;entryPerimeter=0;" edge="1" parent="dXR9RFDaitIcVRBOJF53-1" source="0Af9n1qGzPiXgY_UXaJy-3" target="0Af9n1qGzPiXgY_UXaJy-5">
          <mxGeometry relative="1" as="geometry" />
        </mxCell>
        <mxCell id="0Af9n1qGzPiXgY_UXaJy-25" style="edgeStyle=orthogonalEdgeStyle;rounded=0;orthogonalLoop=1;jettySize=auto;html=1;entryX=0;entryY=0.5;entryDx=0;entryDy=0;entryPerimeter=0;" edge="1" parent="dXR9RFDaitIcVRBOJF53-1" source="0Af9n1qGzPiXgY_UXaJy-22" target="0Af9n1qGzPiXgY_UXaJy-24">
          <mxGeometry relative="1" as="geometry" />
        </mxCell>
        <mxCell id="0Af9n1qGzPiXgY_UXaJy-27" style="edgeStyle=orthogonalEdgeStyle;rounded=0;orthogonalLoop=1;jettySize=auto;html=1;entryX=0;entryY=0.5;entryDx=0;entryDy=0;entryPerimeter=0;" edge="1" parent="dXR9RFDaitIcVRBOJF53-1" source="0Af9n1qGzPiXgY_UXaJy-24" target="0Af9n1qGzPiXgY_UXaJy-26">
          <mxGeometry relative="1" as="geometry" />
        </mxCell>
        <mxCell id="0Af9n1qGzPiXgY_UXaJy-33" style="edgeStyle=orthogonalEdgeStyle;rounded=0;orthogonalLoop=1;jettySize=auto;html=1;" edge="1" parent="dXR9RFDaitIcVRBOJF53-1" source="0Af9n1qGzPiXgY_UXaJy-31" target="0Af9n1qGzPiXgY_UXaJy-34">
          <mxGeometry relative="1" as="geometry">
            <Array as="points">
              <mxPoint x="1830" y="30" />
              <mxPoint x="1065" y="30" />
            </Array>
          </mxGeometry>
        </mxCell>
        <mxCell id="0Af9n1qGzPiXgY_UXaJy-35" style="edgeStyle=orthogonalEdgeStyle;rounded=0;orthogonalLoop=1;jettySize=auto;html=1;entryX=0;entryY=0.5;entryDx=0;entryDy=0;entryPerimeter=0;" edge="1" parent="dXR9RFDaitIcVRBOJF53-1" source="0Af9n1qGzPiXgY_UXaJy-7" target="0Af9n1qGzPiXgY_UXaJy-34">
          <mxGeometry relative="1" as="geometry" />
        </mxCell>
        <mxCell id="0Af9n1qGzPiXgY_UXaJy-40" style="edgeStyle=orthogonalEdgeStyle;rounded=0;orthogonalLoop=1;jettySize=auto;html=1;entryX=0.5;entryY=0;entryDx=0;entryDy=0;entryPerimeter=0;" edge="1" parent="dXR9RFDaitIcVRBOJF53-1" source="0Af9n1qGzPiXgY_UXaJy-37" target="0Af9n1qGzPiXgY_UXaJy-39">
          <mxGeometry relative="1" as="geometry" />
        </mxCell>
        <mxCell id="0Af9n1qGzPiXgY_UXaJy-1" value="&lt;h1 style=&quot;margin-top: 0px;&quot;&gt;Processo de Cadastro de Novo Curso.&lt;/h1&gt;&lt;p&gt;Fluxo que demonstra o processo de cadastro de um novo curso realizado integralmente no Sistema UniCursos, &lt;br&gt;destacando as principais etapas e responsáveis envolvidos.&lt;br&gt;&lt;br&gt;&lt;/p&gt;&lt;p&gt;&lt;br&gt;&lt;/p&gt;" style="text;html=1;whiteSpace=wrap;overflow=hidden;rounded=0;fillColor=#ffe6cc;strokeColor=#d79b00;" vertex="1" parent="1">
          <mxGeometry x="20" y="10" width="800" height="120" as="geometry" />
        </mxCell>
        <mxCell id="0Af9n1qGzPiXgY_UXaJy-43" value="&lt;div&gt;&lt;b&gt;Legenda de Regras e requisitos&lt;/b&gt;&lt;br&gt;&lt;b&gt;RF01 - Campos do formulário&amp;nbsp;&lt;/b&gt;&lt;/div&gt;&lt;div&gt;O sistema deve exibir os seguintes campos para preenchimento:&lt;/div&gt;&lt;div&gt;&lt;ul&gt;&lt;li&gt;[Nome do Curso]&lt;/li&gt;&lt;li&gt;[Descrição Detalhada]&lt;/li&gt;&lt;li&gt;[Nome do Instrutor]&lt;/li&gt;&lt;li&gt;[Carga Horária]&lt;/li&gt;&lt;li&gt;[Modalidade (Online)]&lt;/li&gt;&lt;li&gt;[tipo de curso (gratuito/pago)]&lt;/li&gt;&lt;li&gt;[Preço]&lt;/li&gt;&lt;li&gt;[Quantidade de parcelas]&lt;/li&gt;&lt;/ul&gt;&lt;/div&gt;&lt;div&gt;&lt;b&gt;RF02 - Validação de cadastro&lt;/b&gt;&lt;/div&gt;&lt;div&gt;O sistema deve receber os dados e realizar as seguintes validações automáticas, como:&lt;/div&gt;&lt;div&gt;&lt;ul&gt;&lt;li&gt;&amp;nbsp;Verificar se todos os campos obrigatórios foram preenchidos.&lt;/li&gt;&lt;li&gt;&amp;nbsp;Verificar se o formato do preço é um número válido.&lt;/li&gt;&lt;li&gt;&amp;nbsp;Verificar se a carga horária é um número positivo.&lt;/li&gt;&lt;li&gt;&amp;nbsp;Verificar se já não existe um curso com o mesmo nome (evitar duplicidade).&lt;/li&gt;&lt;/ul&gt;&lt;/div&gt;&lt;div&gt;Caso a validação do preenchimento dos campos não esteja conforme a validação, exibir a mensagem de erro informando o motivo do erro.&lt;/div&gt;&lt;div&gt;&lt;br&gt;&lt;/div&gt;&lt;div&gt;&lt;b&gt;RF03 - Novo curso&lt;/b&gt;&lt;/div&gt;&lt;div&gt;O sistema deve exibir o novo curso cadastrado na lista de cursos.&lt;/div&gt;&lt;div&gt;&lt;br&gt;&lt;/div&gt;&lt;div&gt;&lt;b&gt;RN01 - validações do campo preço&lt;/b&gt;&lt;/div&gt;&lt;div&gt;Para cursos do tipo gratuito, o sistema deve desabilitar os campos [Preço], [Quantidade de parcelas] e manter o valor &quot;0.00&quot;&lt;/div&gt;&lt;div&gt;Para cursos do tipo pago, o sistema deve habilitar o campo [Preço], [Quantidade de parcelas] e o tornar obrigatório o preenchimento.&lt;/div&gt;&lt;div&gt;Para cursos do tipo pago, o sistema não deve permitir valores inferiores ou iguais a &quot;0.00&quot;&lt;/div&gt;&lt;div&gt;Para cursos do tipo pago, o sistema não deve permitir selecionar a quantidade de parcelas entre 1 a 12 parcelas.&lt;/div&gt;" style="text;html=1;align=left;verticalAlign=middle;whiteSpace=wrap;rounded=0;fillColor=#ffe6cc;strokeColor=#d79b00;" vertex="1" parent="1">
          <mxGeometry x="20" y="680" width="930" height="480" as="geometry" />
        </mxCell>
        <mxCell id="0Af9n1qGzPiXgY_UXaJy-44" value="RF01, RN01" style="text;html=1;align=center;verticalAlign=middle;resizable=0;points=[];autosize=1;strokeColor=#d79b00;fillColor=#ffe6cc;" vertex="1" parent="1">
          <mxGeometry x="894" y="608" width="90" height="30" as="geometry" />
        </mxCell>
      </root>
    </mxGraphModel>
  </diagram>
</mxfile>
